<?xml version="1.0" encoding="UTF-8"?>
<svg version="1.1" xmlns="http://www.w3.org/2000/svg" width="192" height="192">
<path d="M0 0 C10.89 0 21.78 0 33 0 C33 42.9 33 85.8 33 130 C22.11 130 11.22 130 0 130 C0 113.17 0 96.34 0 79 C-5.28 79 -10.56 79 -16 79 C-17.80279191 77.19720809 -17.13036605 74.45952299 -17.1328125 72.03125 C-17.13410156 70.82082031 -17.13539062 69.61039062 -17.13671875 68.36328125 C-17.13285156 67.08839844 -17.12898438 65.81351562 -17.125 64.5 C-17.12886719 63.22511719 -17.13273437 61.95023438 -17.13671875 60.63671875 C-17.13542969 59.42628906 -17.13414063 58.21585938 -17.1328125 56.96875 C-17.13168457 55.84919922 -17.13055664 54.72964844 -17.12939453 53.57617188 C-17 51 -17 51 -16 50 C-10.72 50 -5.44 50 0 50 C0 33.5 0 17 0 0 Z " fill="#FE9800" transform="translate(113,31)"/>
<path d="M0 0 C11.22 0 22.44 0 34 0 C34 17.49 34 34.98 34 53 C35.65 53.33 37.3 53.66 39 54 C41.7890625 55.1484375 41.7890625 55.1484375 44 57 C44.5234375 60.1015625 44.5234375 60.1015625 44.375 63.625 C44.34148437 64.79289062 44.30796875 65.96078125 44.2734375 67.1640625 C44 70 44 70 43 71 C31.26832928 72.88878914 22.60861455 68.24678511 12.5 63.125 C10.96471263 62.36871199 9.42825834 61.61478811 7.890625 60.86328125 C5.72837771 59.80576741 3.56836411 58.74528105 1.41687012 57.66604614 C-2.02332934 55.94057348 -5.41672552 54.43330979 -9 53 C-9 48.05 -9 43.1 -9 38 C-6.03 38 -3.06 38 0 38 C0 25.46 0 12.92 0 0 Z " fill="#060304" transform="translate(50,31)"/>
<path d="M0 0 C14.04003175 -1.9365561 23.93791849 4.12745409 36.10888672 10.49072266 C39.29618205 12.15461894 42.50980354 13.75743227 45.734375 15.34741211 C48.16510271 16.54751899 50.58319589 17.77214246 53 19 C53.02685938 21.14576637 53.04633088 23.29162645 53.0625 25.4375 C53.07410156 26.63246094 53.08570313 27.82742187 53.09765625 29.05859375 C53 32 53 32 52 33 C50.48071962 33.07179964 48.95832518 33.08392007 47.4375 33.0625 C46.61121094 33.05347656 45.78492188 33.04445312 44.93359375 33.03515625 C44.29550781 33.02355469 43.65742187 33.01195312 43 33 C43.185625 34.010625 43.37125 35.02125 43.5625 36.0625 C42.95282855 40.33020012 42.53534787 41.11526005 39.5 43.9375 C32.83856231 48.58575004 25.67378616 48.24777011 18 47 C14.7406854 46.12636928 12.9418299 45.27323378 10.44140625 43.01953125 C6.87946425 35.55779368 8.44316931 26.03623545 9 18 C6.03 17.01 3.06 16.02 0 15 C0 10.05 0 5.1 0 0 Z " fill="#060304" transform="translate(41,114)"/>
<path d="M0 0 C10.6739981 -0.73028736 17.1966501 1.21205997 26.5625 6.1875 C28.83309124 7.35067552 31.10521794 8.51085883 33.37890625 9.66796875 C34.47219238 10.23177246 35.56547852 10.79557617 36.69189453 11.37646484 C40.95720374 13.46977158 45.32011406 15.23715951 49.74975586 16.95043945 C52 18 52 18 53 20 C53.09649939 21.9981051 53.12980872 23.9995718 53.125 26 C53.12886719 27.60875 53.12886719 27.60875 53.1328125 29.25 C53 32 53 32 52 34 C40.62923115 35.55055939 32.46616663 31.12922438 22.625 26.1875 C21.09349279 25.43991297 19.56094489 24.69445396 18.02734375 23.95117188 C14.00454466 21.99436812 9.99916096 20.00457208 6 18 C4.02 17.01 2.04 16.02 0 15 C0 10.05 0 5.1 0 0 Z " fill="#050203" transform="translate(41,91)"/>
<path d="M0 0 C0.66 0 1.32 0 2 0 C2 17.16 2 34.32 2 52 C-3.28 52 -8.56 52 -14 52 C-14 60.25 -14 68.5 -14 77 C-8.72 77 -3.44 77 2 77 C2 94.49 2 111.98 2 130 C1.34 130 0.68 130 0 130 C0 113.17 0 96.34 0 79 C-5.28 79 -10.56 79 -16 79 C-17.80279191 77.19720809 -17.13036605 74.45952299 -17.1328125 72.03125 C-17.13410156 70.82082031 -17.13539062 69.61039062 -17.13671875 68.36328125 C-17.13285156 67.08839844 -17.12898438 65.81351562 -17.125 64.5 C-17.12886719 63.22511719 -17.13273437 61.95023438 -17.13671875 60.63671875 C-17.13542969 59.42628906 -17.13414063 58.21585938 -17.1328125 56.96875 C-17.13168457 55.84919922 -17.13055664 54.72964844 -17.12939453 53.57617188 C-17 51 -17 51 -16 50 C-10.72 50 -5.44 50 0 50 C0 33.5 0 17 0 0 Z " fill="#9C5D00" transform="translate(113,31)"/>
<path d="M0 0 C0.66 0 1.32 0 2 0 C2 17.16 2 34.32 2 52 C-0.31 52 -2.62 52 -5 52 C-5 51.34 -5 50.68 -5 50 C-3.35 50 -1.7 50 0 50 C0 33.5 0 17 0 0 Z " fill="#C57600" transform="translate(113,31)"/>
</svg>
